<svg xmlns="http://www.w3.org/2000/svg" xmlns:xlink="http://www.w3.org/1999/xlink" viewBox="0 0 498.96 752.94"><defs><style>.cls-1{isolation:isolate;}.cls-10,.cls-11,.cls-12,.cls-13,.cls-14,.cls-15,.cls-16,.cls-17,.cls-18,.cls-19,.cls-2,.cls-20,.cls-21,.cls-22,.cls-23,.cls-24,.cls-3,.cls-4,.cls-5,.cls-6,.cls-7,.cls-8,.cls-9{fill-rule:evenodd;}.cls-12,.cls-13,.cls-19,.cls-2,.cls-21,.cls-23{opacity:0.6;}.cls-12,.cls-13,.cls-19,.cls-2,.cls-21,.cls-23,.cls-7{mix-blend-mode:multiply;}.cls-2{fill:url(#Áåçûìÿííûé_ãðàäèåíò_149);}.cls-3{fill:url(#Áåçûìÿííûé_ãðàäèåíò_52);}.cls-4{fill:#ffe313;}.cls-5{fill:#ffbd13;}.cls-6{fill:#ffff18;}.cls-7{opacity:0.2;fill:url(#Áåçûìÿííûé_ãðàäèåíò_12);}.cls-8,.cls-9{opacity:0.5;mix-blend-mode:screen;}.cls-8{fill:url(#Áåçûìÿííûé_ãðàäèåíò_34);}.cls-9{fill:url(#Áåçûìÿííûé_ãðàäèåíò_34-2);}.cls-10{fill:#ffff1d;}.cls-11{fill:#ff7539;}.cls-12{fill:#d990b1;}.cls-13{fill:url(#Áåçûìÿííûé_ãðàäèåíò_149-2);}.cls-14{fill:url(#Áåçûìÿííûé_ãðàäèåíò_52-2);}.cls-15{fill:#fcca70;mix-blend-mode:soft-light;}.cls-16{fill:#b12934;}.cls-17{fill:#f48600;}.cls-18{fill:#d75212;}.cls-19{fill:url(#Áåçûìÿííûé_ãðàäèåíò_149-3);}.cls-20{fill:url(#Áåçûìÿííûé_ãðàäèåíò_52-3);}.cls-21{fill:url(#Áåçûìÿííûé_ãðàäèåíò_149-4);}.cls-22{fill:url(#Áåçûìÿííûé_ãðàäèåíò_52-4);}.cls-23{fill:url(#Áåçûìÿííûé_ãðàäèåíò_149-5);}.cls-24{fill:url(#Áåçûìÿííûé_ãðàäèåíò_52-5);}</style><linearGradient id="Áåçûìÿííûé_ãðàäèåíò_149" x1="262.35" y1="752.94" x2="262.35" y2="700.55" gradientUnits="userSpaceOnUse"><stop offset="0" stop-color="#c77cbd"/><stop offset="1" stop-color="#974577"/></linearGradient><radialGradient id="Áåçûìÿííûé_ãðàäèåíò_52" cx="237.68" cy="3106.12" r="474.92" gradientTransform="translate(0 -2176.25) scale(1 0.75)" gradientUnits="userSpaceOnUse"><stop offset="0" stop-color="#ffce1b"/><stop offset="1" stop-color="#ff901d"/></radialGradient><linearGradient id="Áåçûìÿííûé_ãðàäèåíò_12" x1="344.71" y1="738.28" x2="344.71" y2="162.26" gradientUnits="userSpaceOnUse"><stop offset="0" stop-color="#ab4577"/><stop offset="1" stop-color="#fff"/></linearGradient><linearGradient id="Áåçûìÿííûé_ãðàäèåíò_34" x1="364.5" y1="681.79" x2="364.5" y2="10.5" gradientUnits="userSpaceOnUse"><stop offset="0"/><stop offset="1" stop-color="#ffbd00"/></linearGradient><linearGradient id="Áåçûìÿííûé_ãðàäèåíò_34-2" x1="83.53" y1="733.46" x2="83.53" y2="28.65" xlink:href="#Áåçûìÿííûé_ãðàäèåíò_34"/><linearGradient id="Áåçûìÿííûé_ãðàäèåíò_149-2" x1="459.79" y1="88.16" x2="459.79" y2="47.33" xlink:href="#Áåçûìÿííûé_ãðàäèåíò_149"/><radialGradient id="Áåçûìÿííûé_ãðàäèåíò_52-2" cx="458.04" cy="2954.06" r="28.51" xlink:href="#Áåçûìÿííûé_ãðàäèåíò_52"/><linearGradient id="Áåçûìÿííûé_ãðàäèåíò_149-3" x1="42.84" y1="110.1" x2="42.84" y2="69.27" xlink:href="#Áåçûìÿííûé_ãðàäèåíò_149"/><radialGradient id="Áåçûìÿííûé_ãðàäèåíò_52-3" cx="41.09" cy="2983.24" r="28.51" xlink:href="#Áåçûìÿííûé_ãðàäèåíò_52"/><linearGradient id="Áåçûìÿííûé_ãðàäèåíò_149-4" x1="58.15" y1="716.84" x2="58.15" y2="676.02" xlink:href="#Áåçûìÿííûé_ãðàäèåíò_149"/><radialGradient id="Áåçûìÿííûé_ãðàäèåíò_52-4" cx="56.4" cy="3789.96" r="28.51" xlink:href="#Áåçûìÿííûé_ãðàäèåíò_52"/><linearGradient id="Áåçûìÿííûé_ãðàäèåíò_149-5" x1="439.14" y1="708.37" x2="439.14" y2="667.54" xlink:href="#Áåçûìÿííûé_ãðàäèåíò_149"/><radialGradient id="Áåçûìÿííûé_ãðàäèåíò_52-5" cx="437.39" cy="3778.68" r="28.51" xlink:href="#Áåçûìÿííûé_ãðàäèåíò_52"/></defs><g class="cls-1"><g id="Layer_2" data-name="Layer 2"><g id="Layer_1-2" data-name="Layer 1"><polygon class="cls-2" points="59.9 730.31 68.97 738.28 205.53 752.94 447.65 725.92 464.8 700.55 59.9 730.31"/><path class="cls-3" d="M0,73.73,39.72,29.68S263.8,23.47,464.8,8.2L499,45.74,476.47,688.17l-28.82,29.15-244.95,21L52.53,729.9,20.34,701.76Z"/><path class="cls-4" d="M464.8,8.2,454.53,0,241.06,16,35.13,24.48l1.16,5S315.37,22.34,464.8,8.2Z"/><polygon class="cls-5" points="498.96 45.74 491.94 30.48 454.53 0 454.53 9.14 498.96 45.74"/><polygon class="cls-5" points="0 73.73 4.68 54.24 35.13 24.48 39.72 29.68 0 73.73"/><polygon class="cls-6" points="438.57 10.51 462.81 15.96 454.53 4.06 438.57 10.51"/><polygon class="cls-6" points="30.94 39.42 53.6 29.2 38.81 28.65 30.94 39.42"/><polygon class="cls-7" points="202.7 738.28 486.73 162.26 476.47 688.17 447.65 717.32 202.7 738.28"/><polygon class="cls-8" points="313.98 18.63 290.43 681.79 420.39 203.26 438.57 10.51 313.98 18.63"/><polygon class="cls-9" points="50.76 30.48 84.88 731.7 116.3 733.46 94.37 28.65 50.76 30.48"/><polygon class="cls-10" points="247.14 209.78 311.52 184.69 269.01 207.01 247.14 209.78"/><polygon class="cls-10" points="215.33 624.4 231.76 645.67 225.26 633.95 215.33 624.4"/><polygon class="cls-11" points="247.14 209.78 272.69 197.24 311.52 184.69 247.14 209.78"/><polygon class="cls-11" points="215.33 624.4 225.26 633.95 231.76 645.67 226.45 632.29 215.33 624.4"/><polygon class="cls-10" points="50.76 157.34 73.87 133.2 63.9 149.17 50.76 157.34"/><polygon class="cls-10" points="357.09 702.44 375.33 694.64 372.54 701.09 357.09 702.44"/><polygon class="cls-10" points="427.28 711.61 434.42 711.61 434.42 705.73 427.28 711.61"/><polygon class="cls-11" points="434.42 705.73 428.86 703.55 427.28 711.61 434.42 705.73"/><polygon class="cls-11" points="375.33 694.64 364.5 694.58 357.09 702.44 375.33 694.64"/><polygon class="cls-12" points="476.47 688.17 445.95 711.4 202.7 738.28 447.65 717.32 476.47 688.17"/><polygon class="cls-12" points="20.34 701.76 62.93 726.74 158.54 735.82 52.53 729.89 20.34 701.76"/><polygon class="cls-13" points="435.4 54.77 435.4 77.53 448.69 88.16 473.06 88.16 484.18 76.65 484.18 47.33 435.4 54.77"/><polygon class="cls-14" points="437.64 69.35 434.26 47.35 447.29 37.14 473.06 37.14 484.18 47.33 482.62 69.67 469.55 77.53 449.24 77.53 437.64 69.35"/><polygon class="cls-4" points="473.06 37.14 469.6 30.81 448.69 32.22 447.29 37.14 473.06 37.14"/><polygon class="cls-5" points="484.18 47.33 469.6 30.81 471.89 37.14 484.18 47.33"/><polygon class="cls-5" points="448.69 32.22 447.29 37.14 434.26 47.35 437.57 41.94 448.69 32.22"/><polygon class="cls-15" points="434.26 47.35 447.29 57.34 476.89 55.06 484.18 47.33 471.89 37.14 447.29 37.14 434.26 47.35"/><polygon class="cls-16" points="444.65 69.67 450.09 72.63 478.91 47.33 470.83 41.7 444.65 69.67"/><polygon class="cls-16" points="478.91 47.33 474.17 47.24 450.09 68.76 450.09 72.63 478.91 47.33"/><polygon class="cls-17" points="450.09 68.76 447.12 67.03 444.65 69.67 450.09 72.63 450.09 68.76"/><polygon class="cls-6" points="465.65 37.14 476.89 40.65 471.27 35.43 465.65 37.14"/><polygon class="cls-6" points="447.78 35.43 450.09 37.14 444.65 39.2 447.78 35.43"/><polygon class="cls-18" points="474.17 47.24 468.8 43.87 447.12 67.03 450.09 68.76 474.17 47.24"/><polygon class="cls-17" points="474.17 74.45 464.5 77.53 469.55 77.53 474.17 74.45"/><polygon class="cls-17" points="444.87 74.45 454.14 77.53 449.24 77.53 444.87 74.45"/><polygon class="cls-19" points="18.45 76.72 18.45 99.48 31.74 110.1 56.1 110.1 67.23 98.6 67.23 69.28 18.45 76.72"/><polygon class="cls-20" points="20.69 91.3 17.31 69.3 30.34 59.09 56.1 59.09 67.23 69.28 65.67 91.61 52.59 99.48 32.29 99.48 20.69 91.3"/><polygon class="cls-4" points="56.1 59.09 52.65 52.76 31.74 54.16 30.34 59.09 56.1 59.09"/><polygon class="cls-5" points="67.23 69.28 52.65 52.76 54.93 59.09 67.23 69.28"/><polygon class="cls-5" points="31.74 54.16 30.34 59.09 17.31 69.3 20.61 63.89 31.74 54.16"/><polygon class="cls-15" points="17.31 69.3 30.34 79.28 59.94 77.01 67.23 69.28 54.93 59.09 30.34 59.09 17.31 69.3"/><polygon class="cls-16" points="32.86 96.62 38.97 97.59 57.69 64.12 48.2 61.52 32.86 96.62"/><polygon class="cls-16" points="57.69 64.12 53.19 65.62 37.68 93.95 38.97 97.59 57.69 64.12"/><polygon class="cls-17" points="37.68 93.95 34.3 93.31 32.86 96.62 38.97 97.59 37.68 93.95"/><polygon class="cls-6" points="48.7 59.09 59.94 62.6 54.32 57.38 48.7 59.09"/><polygon class="cls-6" points="30.82 57.38 33.14 59.09 27.7 61.15 30.82 57.38"/><polygon class="cls-18" points="53.19 65.62 47.01 64.24 34.3 93.31 37.68 93.95 53.19 65.62"/><polygon class="cls-17" points="57.22 96.4 47.55 99.48 52.59 99.48 57.22 96.4"/><polygon class="cls-17" points="27.92 96.4 37.19 99.48 32.29 99.48 27.92 96.4"/><polygon class="cls-21" points="33.76 683.46 33.76 706.22 47.05 716.84 71.42 716.84 82.54 705.34 82.54 676.02 33.76 683.46"/><polygon class="cls-22" points="36 698.04 32.62 676.04 45.65 665.83 71.42 665.83 82.54 676.02 80.98 698.36 67.91 706.22 47.6 706.22 36 698.04"/><polygon class="cls-4" points="71.42 665.83 67.96 659.5 47.05 660.91 45.65 665.83 71.42 665.83"/><polygon class="cls-5" points="82.54 676.02 67.96 659.5 70.24 665.83 82.54 676.02"/><polygon class="cls-5" points="47.05 660.91 45.65 665.83 32.62 676.04 35.92 670.63 47.05 660.91"/><polygon class="cls-15" points="32.62 676.04 45.65 686.02 75.25 683.75 82.54 676.02 70.24 665.83 45.65 665.83 32.62 676.04"/><polygon class="cls-16" points="74.71 697.51 69.28 700.47 40.45 675.17 48.53 669.55 74.71 697.51"/><polygon class="cls-16" points="40.45 675.17 45.2 675.08 69.28 696.6 69.28 700.47 40.45 675.17"/><polygon class="cls-17" points="69.28 696.6 72.24 694.87 74.71 697.51 69.28 700.47 69.28 696.6"/><polygon class="cls-6" points="64.01 665.83 75.25 669.34 69.63 664.12 64.01 665.83"/><polygon class="cls-6" points="46.13 664.12 48.45 665.83 43.01 667.89 46.13 664.12"/><polygon class="cls-18" points="45.2 675.08 50.56 671.72 72.24 694.87 69.28 696.6 45.2 675.08"/><polygon class="cls-17" points="72.53 703.14 62.86 706.22 67.91 706.22 72.53 703.14"/><polygon class="cls-17" points="43.23 703.14 52.5 706.22 47.6 706.22 43.23 703.14"/><polygon class="cls-23" points="414.75 674.98 414.75 697.74 428.04 708.37 452.4 708.37 463.53 696.86 463.53 667.54 414.75 674.98"/><polygon class="cls-24" points="416.99 689.56 413.61 667.56 426.63 657.35 452.4 657.35 463.53 667.54 461.97 689.88 448.89 697.74 428.58 697.74 416.99 689.56"/><polygon class="cls-4" points="452.4 657.35 448.94 651.02 428.04 652.43 426.63 657.35 452.4 657.35"/><polygon class="cls-5" points="463.53 667.54 448.94 651.02 451.23 657.35 463.53 667.54"/><polygon class="cls-5" points="428.04 652.43 426.63 657.35 413.61 667.56 416.91 662.15 428.04 652.43"/><polygon class="cls-15" points="413.61 667.56 426.63 677.54 456.24 675.27 463.53 667.54 451.23 657.35 426.63 657.35 413.61 667.56"/><polygon class="cls-16" points="438.82 696.4 444.83 696.4 445.23 658.05 435.65 660.32 438.82 696.4"/><polygon class="cls-16" points="445.23 658.05 442 661.52 442.8 694.58 444.83 696.4 445.23 658.05"/><polygon class="cls-17" points="441.96 693.82 438.69 694.88 438.82 696.4 444.83 696.4 441.96 693.82"/><polygon class="cls-6" points="444.99 657.35 456.24 660.86 450.62 655.64 444.99 657.35"/><polygon class="cls-6" points="427.12 655.64 429.43 657.35 424 659.41 427.12 655.64"/><polygon class="cls-18" points="442 661.52 435.91 663.28 438.69 694.88 442.8 694.58 442 661.52"/><polygon class="cls-17" points="453.51 694.66 443.85 697.74 448.89 697.74 453.51 694.66"/><polygon class="cls-17" points="424.21 694.66 433.48 697.74 428.58 697.74 424.21 694.66"/></g></g></g></svg>